<svg width="213.30512084960938px" height="62.24000091552734px" xmlns="http://www.w3.org/2000/svg" viewBox="143.34743957519532 43.879999542236334 213.30512084960938 62.24000091552734" style="background: rgb(253, 253, 253);" preserveAspectRatio="xMidYMid"><defs><filter id="editing-metal-beveled"><feGaussianBlur stdDeviation="4" in="SourceAlpha" result="blur"></feGaussianBlur><feSpecularLighting surfaceScale="5" specularConstant="0.8" specularExponent="7.5" lighting-color="#bbcedd" in="blur" result="specular"><fePointLight x="-250" y="-50" z="300"></fePointLight></feSpecularLighting><feComposite operator="in" in="specular" in2="SourceAlpha" result="comp"></feComposite><feComposite in="SourceGraphic" in2="comp" operator="arithmetic" k1="0" k2="1" k3="1" k4="0"></feComposite></filter></defs><g filter="url(#editing-metal-beveled)"><g transform="translate(178.38534238934517, 88.65294361114502)"><path d="M10.36-4.06L10.36-4.06L17.08-20.02L18.51-20.02L9.88 0.17L9.10 0.17L0.45-20.02L1.96-20.02L8.68-4.12L8.68-4.12Q9.38-2.41 9.55-1.76L9.55-1.76L9.55-1.76Q9.77-2.66 10.36-4.06ZM29.06-0.98L29.06-0.98L29.06-0.98Q33.01-0.98 35.41-3.12L35.41-3.12L35.41-3.12Q37.80-5.26 37.80-9.58L37.80-9.58L37.80-9.58Q37.80-13.89 35.10-16.44L35.10-16.44L35.10-16.44Q32.40-18.98 28.42-18.98L28.42-18.98L28.42-18.98Q25.87-18.98 24.00-18.84L24.00-18.84L24.00-1.20L24.00-1.20Q25.82-0.98 29.06-0.98ZM28.42-20.22L28.42-20.22L28.42-20.22Q33.04-20.22 36.15-17.35L36.15-17.35L36.15-17.35Q39.26-14.48 39.26-9.55L39.26-9.55L39.26-9.55Q39.26-7.06 38.46-5.14L38.46-5.14L38.46-5.14Q37.66-3.22 36.26-2.07L36.26-2.07L36.26-2.07Q33.38 0.25 29.06 0.25L29.06 0.25L29.06 0.25Q26.24 0.25 22.65-0.06L22.65-0.06L22.65-20.02L22.65-20.02Q25.51-20.22 28.42-20.22ZM53.90 0L45.14 0L45.14-18.17L53.62-18.17L53.62-17.05L46.42-17.05L46.42-10.44L52.92-10.44L52.92-9.35L46.42-9.35L46.42-1.18L53.90-1.18L53.90 0ZM62.30 0L62.30-17.02L56.14-17.02L56.14-18.17L69.72-18.17L69.72-17.02L63.56-17.02L63.56 0L62.30 0ZM81.82 0L80.47 0L80.47-6.44L71.12-6.44L71.12-7.48L80.86-20.19L81.82-20.19L81.82-7.67L85.01-7.67L85.01-6.44L81.82-6.44L81.82 0ZM72.63-7.67L80.47-7.67L80.47-17.84L72.63-7.67ZM89.21-2.24L89.21-2.24L89.21-20.02L90.55-20.02L90.55-3.14L90.55-3.14Q90.55 0.62 88.98 2.86L88.98 2.86L88.98 2.86Q88.20 4.00 87.39 4.77L87.39 4.77L87.39 4.77Q86.58 5.54 85.40 6.38L85.40 6.38L84.81 5.52L84.81 5.52Q89.21 2.30 89.21-2.24ZM106.57-6.30L98.50-6.30L95.90 0L94.58 0L102.20-18.28L102.96-18.28L110.63 0L109.20 0L106.57-6.30ZM102.51-16.21L102.51-16.21L102.51-16.21Q102.09-14.95 101.75-14.11L101.75-14.11L98.95-7.39L106.12-7.39L103.35-14.08L103.35-14.08Q102.70-15.65 102.51-16.21ZM120.26-3.81L120.26-3.81L126.34-18.17L127.68-18.17L119.87 0.11L119.11 0.11L111.30-18.17L112.70-18.17L119.56-2.02L119.56-2.02Q119.70-2.44 120.26-3.81ZM138.94-6.30L130.87-6.30L128.27 0L126.95 0L134.57-18.28L135.32-18.28L143.00 0L141.57 0L138.94-6.30ZM134.88-16.21L134.88-16.21L134.88-16.21Q134.46-14.95 134.12-14.11L134.12-14.11L131.32-7.39L138.49-7.39L135.72-14.08L135.72-14.08Q135.07-15.65 134.88-16.21Z" fill="#d69293"></path></g></g><style>text {
  font-size: 64px;
  font-family: Arial Black;
  dominant-baseline: central;
  text-anchor: middle;
}</style></svg>